<svg xmlns="http://www.w3.org/2000/svg" width="54" height="54" viewBox="0 0 54 54" fill="none"><g id="Innovation" clip-path="url(#clip0_1418_1992)"><g id="Group"><path id="Vector" d="M12.9975 12.0056C12.8394 11.6013 12.4496 11.3351 12.0154 11.335H12.0152C11.5811 11.335 11.1912 11.601 11.0329 12.0053L7.91877 19.9636C7.70646 20.506 7.97414 21.1178 8.51657 21.3301C8.64282 21.3795 8.77286 21.4029 8.90069 21.4029C9.32225 21.4029 9.72028 21.1485 9.88313 20.7323L10.4113 19.3826H13.6166L14.1442 20.732C14.3562 21.2745 14.9681 21.5425 15.5104 21.3302C16.0531 21.1181 16.3208 20.5064 16.1087 19.9639L12.9975 12.0056ZM11.2368 17.2732L12.0148 15.2851L12.7921 17.2732H11.2368Z" fill="#362D7D"></path><path id="Vector_2" d="M18.8256 21.4026C19.408 21.4026 19.8802 20.9304 19.8802 20.3479V12.3896C19.8802 11.8071 19.408 11.335 18.8256 11.335C18.2432 11.335 17.7709 11.8071 17.7709 12.3896V20.3479C17.7709 20.9304 18.2432 21.4026 18.8256 21.4026Z" fill="#362D7D"></path><path id="Vector_3" d="M50.1073 24.8396C48.4876 24.8396 47.1145 25.9157 46.6629 27.3913H44.3672L43.4934 23.6101C43.3843 23.1379 42.9499 22.7928 42.4658 22.7928H40.3692C40.7885 21.5152 41.0746 20.0815 41.1584 18.419L46.9541 18.42C47.4059 19.8941 48.7787 20.969 50.3981 20.969C52.3842 20.969 54 19.3525 54 17.3655C54 15.3768 52.3842 13.7591 50.3981 13.7591C48.7785 13.7591 47.4055 14.8352 46.9538 16.3107L41.1551 16.3096C41.0749 14.7818 40.8218 13.3181 40.4013 11.9354H42.4656C42.9498 11.9354 43.3838 11.5903 43.4932 11.1181L44.367 7.33686H46.663C47.1148 8.81078 48.4878 9.88572 50.1071 9.88572C52.0949 9.88572 53.712 8.2692 53.712 6.28217C53.712 4.29514 52.0949 2.67872 50.1071 2.67872C48.4878 2.67872 47.1149 3.75355 46.663 5.22748H43.5283C43.0469 5.22748 42.6414 5.55053 42.5152 5.9915C42.51 6.00795 42.5052 6.02546 42.5007 6.04476L41.6269 9.82602H39.6015C38.8743 8.24346 37.9026 6.79517 36.6969 5.51235C36.2981 5.08784 35.6307 5.06717 35.2061 5.46616C34.7817 5.86514 34.7609 6.53255 35.1599 6.95696C35.9783 7.82771 36.6727 8.78853 37.2399 9.82602H33.883C33.3006 9.82602 32.8283 10.2982 32.8283 10.8807C32.8283 11.4632 33.3006 11.9354 33.883 11.9354H38.1796C38.661 13.3007 38.9513 14.7661 39.0426 16.3092L32.5266 16.3079C32.5265 16.3079 32.5265 16.3079 32.5264 16.3079C31.944 16.3079 31.4718 16.78 31.4717 17.3624C31.4716 17.9449 31.9437 18.4172 32.5261 18.4173L39.0444 18.4186C38.9474 20.1115 38.6126 21.5326 38.1248 22.7928H33.8831C33.3007 22.7928 32.8284 23.265 32.8284 23.8475C32.8284 24.43 33.3007 24.9021 33.8831 24.9021H37.1063C36.4533 26.0334 35.6946 27.0675 34.9199 28.1223C33.2684 30.3707 31.5661 32.6904 30.8702 36.0683H18.396C18.0214 34.2532 17.3641 32.767 16.6398 31.5049C17.5498 31.2652 18.2237 30.4375 18.2237 29.4529V29.1502C19.0678 28.8995 19.8809 28.5618 20.6544 28.1408L20.8702 28.3568C21.2705 28.7572 21.8038 28.9778 22.3717 28.9778C22.9397 28.9778 23.4729 28.7572 23.8733 28.3567L25.9899 26.2385C26.8174 25.4106 26.8174 24.0634 25.9899 23.2354L25.7734 23.0188C26.1944 22.2445 26.532 21.4305 26.7827 20.5856H27.0844C28.2553 20.5856 29.2079 19.6327 29.2079 18.4615V15.4671C29.2079 14.2959 28.2553 13.343 27.0844 13.343H26.7827C26.532 12.4981 26.1944 11.6842 25.7734 10.9098L25.9899 10.6932C26.8173 9.86526 26.8173 8.51811 25.9899 7.69007L23.8733 5.57194C23.4729 5.17148 22.9397 4.95094 22.3717 4.95094C21.8038 4.95094 21.2705 5.17148 20.8702 5.57205L20.6544 5.78794C19.8808 5.3668 19.0678 5.0292 18.2237 4.7785V4.4758C18.2237 4.29798 18.1994 4.12607 18.158 3.9608C20.1792 2.95864 22.3943 2.44764 24.6206 2.47949C24.6303 2.4796 24.6399 2.4796 24.6495 2.47949C25.6832 2.46599 26.7199 2.56872 27.7335 2.78598C28.303 2.9077 28.8637 2.5452 28.9858 1.97556C29.1077 1.40603 28.745 0.84536 28.1753 0.723332C27.0122 0.47411 25.8212 0.35493 24.6357 0.370118C21.8352 0.332043 19.0613 1.03668 16.5766 2.40746C16.4232 2.37213 16.2642 2.35156 16.1002 2.35156H13.1078C11.9368 2.35156 10.9843 3.30447 10.9843 4.4757V4.77839C10.1402 5.02909 9.32723 5.3667 8.55362 5.78784L8.33783 5.57194C7.93747 5.17148 7.40422 4.95094 6.83627 4.95094C6.26832 4.95094 5.73507 5.17148 5.33471 5.57205L3.21806 7.69049C2.39066 8.51842 2.39066 9.86557 3.21806 10.6936L3.43459 10.9102C3.01356 11.6846 2.67595 12.4985 2.42525 13.3434H2.12361C0.952594 13.3433 0 14.2962 0 15.4674V18.4618C0 19.633 0.952594 20.5859 2.12351 20.5859H2.42515C2.67585 21.4309 3.01345 22.2449 3.43448 23.0191L3.21796 23.2357C2.39045 24.0637 2.39045 25.4109 3.21796 26.2389L5.33461 28.357C5.73497 28.7575 6.26822 28.978 6.83617 28.978C7.40412 28.978 7.93737 28.7575 8.33773 28.3569L8.55352 28.141C9.32702 28.562 10.1401 28.8997 10.9841 29.1504V29.4531C10.9841 30.6244 11.9367 31.5773 13.1077 31.5773H14.2086C15.0911 32.9284 15.9698 34.5755 16.3744 36.7152C15.5267 37.3313 14.9741 38.3297 14.9741 39.4551C14.9741 40.3593 15.3305 41.1812 15.9092 41.7896C15.3305 42.3974 14.9741 43.2186 14.9741 44.122C14.9741 45.7079 16.0705 47.0419 17.5451 47.4084V49.5167C17.5451 51.7854 19.39 53.6311 21.6576 53.6311H27.6099C29.8792 53.6311 31.7254 51.7854 31.7254 49.5167V47.4082C33.1985 47.0415 34.2935 45.7075 34.2935 44.122C34.2935 43.2187 33.9374 42.3975 33.3591 41.7896C33.9374 41.1812 34.2935 40.3593 34.2935 39.4551C34.2935 38.3288 33.7405 37.3298 32.8925 36.7138C33.4661 33.6661 35.0004 31.5761 36.6199 29.3713C37.6403 27.982 38.6758 26.5703 39.5025 24.9024H41.627L42.5008 28.6836C42.61 29.1559 43.0442 29.5009 43.5284 29.5009H46.6631C47.1149 30.9748 48.4879 32.0497 50.1073 32.0497C52.095 32.0497 53.7121 30.4331 53.7121 28.4462C53.7121 26.4574 52.095 24.8396 50.1073 24.8396ZM50.3981 15.8685C51.2211 15.8685 51.8906 16.5402 51.8906 17.3656C51.8906 18.1895 51.221 18.8597 50.3981 18.8597C49.5753 18.8597 48.9058 18.1895 48.9058 17.3656C48.9056 16.5402 49.5752 15.8685 50.3981 15.8685ZM50.1073 4.7882C50.9318 4.7882 51.6027 5.45846 51.6027 6.28227C51.6027 7.1062 50.9319 7.77645 50.1073 7.77645C49.2843 7.77645 48.6148 7.1062 48.6148 6.28227C48.6147 5.45846 49.2843 4.7882 50.1073 4.7882ZM16.1144 28.3361V29.453C16.1144 29.4591 16.1052 29.4678 16.1002 29.4678H14.7711C14.7688 29.4678 14.7665 29.4678 14.764 29.4678H13.1078C13.1028 29.4678 13.0936 29.4591 13.0936 29.453V28.3361C13.0936 27.8429 12.7519 27.4157 12.2709 27.3073C11.0897 27.0411 9.97228 26.5769 8.94976 25.9277C8.77595 25.8173 8.57978 25.7634 8.38487 25.7634C8.11234 25.7634 7.84213 25.8689 7.63857 26.0725L6.84587 26.8657C6.84134 26.8703 6.83121 26.8702 6.82668 26.8657L4.71002 24.7475C4.70602 24.7435 4.70602 24.7307 4.71002 24.7267L5.50273 23.9334C5.85162 23.5843 5.91173 23.04 5.64743 22.6232C4.99869 21.5997 4.53473 20.4815 4.26864 19.2994C4.16032 18.8182 3.73296 18.4764 3.23968 18.4764H2.12351C2.11855 18.4764 2.10938 18.4677 2.10938 18.4616V15.4672C2.10938 15.4611 2.11855 15.4525 2.12351 15.4525H3.23968C3.73296 15.4525 4.16032 15.1106 4.26864 14.6294C4.53473 13.4474 4.99869 12.3291 5.64743 11.3056C5.91173 10.8887 5.85162 10.3444 5.50273 9.99541L4.71002 9.20228C4.70591 9.19817 4.70591 9.1853 4.71002 9.18129L6.82668 7.06327C6.83121 7.05873 6.84134 7.05884 6.84587 7.06327L7.63857 7.85639C7.98789 8.20581 8.53284 8.26593 8.94987 8.00131C9.97249 7.35215 11.0899 6.88798 12.2709 6.62178C12.752 6.51336 13.0937 6.086 13.0937 5.59293V4.47602C13.0937 4.4699 13.1029 4.46125 13.1079 4.46125H16.1003C16.1053 4.46125 16.1145 4.4699 16.1145 4.47602V5.59293C16.1145 6.0861 16.4562 6.51346 16.9373 6.62178C18.1183 6.88788 19.2357 7.35204 20.2583 8.00131C20.6751 8.26604 21.2203 8.20592 21.5696 7.85639L22.3623 7.06327C22.3669 7.05873 22.377 7.05884 22.3815 7.06327L24.4982 9.18129C24.5023 9.18541 24.5023 9.19827 24.4982 9.20228L23.7055 9.99541C23.3566 10.3445 23.2965 10.8888 23.5608 11.3056C24.2095 12.3291 24.6735 13.4474 24.9396 14.6294C25.0479 15.1106 25.4752 15.4525 25.9685 15.4525H27.0847C27.0896 15.4525 27.0988 15.4611 27.0988 15.4672V18.4616C27.0988 18.4677 27.0896 18.4764 27.0847 18.4764H25.9685C25.4752 18.4764 25.0479 18.8182 24.9396 19.2994C24.6735 20.4815 24.2095 21.5997 23.5608 22.6232C23.2965 23.04 23.3566 23.5843 23.7055 23.9334L24.4982 24.7267C24.5022 24.7307 24.5022 24.7435 24.4982 24.7475L22.3815 26.8656C22.377 26.8701 22.3669 26.8701 22.3623 26.8656L21.5696 26.0723C21.2203 25.7229 20.6752 25.6627 20.2583 25.9274C19.2358 26.5766 18.1184 27.0407 16.9372 27.3069C16.4561 27.4157 16.1144 27.8429 16.1144 28.3361ZM29.6162 49.5165C29.6162 50.6221 28.7163 51.5216 27.61 51.5216H21.6577C20.5531 51.5216 19.6546 50.6222 19.6546 49.5165V47.5085H29.616V49.5165H29.6162ZM30.9084 45.3992H18.3625C17.6574 45.3992 17.0837 44.8261 17.0837 44.1219C17.0837 43.4176 17.6574 42.8447 18.3625 42.8447H30.9084C31.6118 42.8447 32.1842 43.4177 32.1842 44.1219C32.1841 44.8261 31.6118 45.3992 30.9084 45.3992ZM30.9084 40.7353H18.3625C17.6574 40.7353 17.0837 40.161 17.0837 39.4551C17.0837 38.7508 17.6574 38.1779 18.3625 38.1779H30.9084C31.6118 38.1779 32.1842 38.7509 32.1842 39.4551C32.1841 40.1609 31.6118 40.7353 30.9084 40.7353ZM50.1073 29.9401C49.2843 29.9401 48.6148 29.2698 48.6148 28.446C48.6148 27.6205 49.2844 26.949 50.1073 26.949C50.9318 26.949 51.6027 27.6206 51.6027 28.446C51.6027 29.2698 50.9318 29.9401 50.1073 29.9401Z" fill="#362D7D"></path><path id="Vector_4" d="M31.7876 4.31727L31.7936 4.32023C31.9446 4.39574 32.1048 4.4315 32.2626 4.4315C32.6489 4.4315 33.0206 4.21697 33.2055 3.84699C33.466 3.32597 33.2518 2.69094 32.7308 2.43044C32.2099 2.16993 31.5762 2.38108 31.3158 2.90209C31.0553 3.42332 31.2665 4.05677 31.7876 4.31727Z" fill="#362D7D"></path></g></g><defs><clipPath id="clip0_1418_1992"><rect width="54" height="54" fill="white"></rect></clipPath></defs></svg>