<svg xmlns="http://www.w3.org/2000/svg" width="63" height="63" viewBox="0 0 63 63" fill="none"><g id="icon 2"><path id="Vector" d="M62.9259 4.70306C62.7894 2.20054 60.7991 0.210517 58.2966 0.0739356C53.2471 -0.201934 43.3659 0.06643 33.9175 4.95346C29.1008 7.4449 24.0067 11.669 19.9414 16.5426C19.8913 16.6026 19.8426 16.663 19.7929 16.7232L10.5669 17.4359C9.04823 17.5533 7.69559 18.3493 6.85567 19.6196L0.561368 29.1399C-0.0756427 30.1034 -0.17691 31.3091 0.290297 32.3652C0.757626 33.4214 1.71788 34.1575 2.85913 34.3343L10.6321 35.5382C10.6046 35.6893 10.5771 35.8403 10.5519 35.9914C10.2931 37.5393 10.8059 39.1308 11.9239 40.2486L22.751 51.0759C23.6779 52.0028 24.9304 52.5138 26.2138 52.5138C26.4781 52.5138 26.7439 52.492 27.0084 52.4478C27.1595 52.4226 27.3105 52.395 27.4616 52.3676L28.6655 60.1407C28.8423 61.2819 29.5784 62.2423 30.6344 62.7095C31.0738 62.9039 31.5387 62.9999 32.0016 62.9999C32.6517 62.9998 33.2972 62.8105 33.8598 62.4386L43.3801 56.1441C44.6505 55.3041 45.4464 53.9514 45.5635 52.4329L46.2762 43.207C46.3364 43.1573 46.3969 43.1086 46.457 43.0585C51.3307 38.9932 55.5549 33.8991 58.0462 29.0823C62.9335 19.6335 63.2014 9.75226 62.9259 4.70306ZM41.3443 53.0648L32.2375 59.0858L31.0642 51.5105C34.913 50.3788 38.7205 48.5663 42.3477 46.1383L41.8835 52.1484C41.8546 52.5234 41.6579 52.8574 41.3443 53.0648ZM25.3612 48.4657L14.534 37.6385C14.2578 37.3621 14.13 36.9739 14.1927 36.6C14.5146 34.6751 15.0147 32.8429 15.6339 31.1168L31.8795 47.3623C29.8064 48.1049 27.9495 48.5479 26.3997 48.807C26.0252 48.8693 25.6374 48.7419 25.3612 48.4657ZM10.8512 21.1163L16.8613 20.6521C14.4331 24.2793 12.6206 28.0868 11.489 31.9356L3.91376 30.7624L9.93491 21.6555C10.1424 21.3417 10.4764 21.1452 10.8512 21.1163ZM44.0928 40.2237C41.111 42.7108 38.2166 44.5097 35.5487 45.8114L17.1876 27.4504C18.8928 23.9677 20.9739 21.0676 22.776 18.9071C26.5381 14.3969 31.2172 10.506 35.6135 8.23215C44.2851 3.74674 53.4214 3.5052 58.0957 3.75966C58.7144 3.79338 59.2064 4.28544 59.2401 4.90424C59.495 9.57852 59.2529 18.7147 54.7675 27.3864C52.4938 31.7826 48.6029 36.4615 44.0928 40.2237Z" fill="#362D7D"></path><path id="Vector_2" d="M43.155 29.0687C45.5177 29.0685 47.8814 28.169 49.6802 26.3702C51.4233 24.6273 52.3831 22.3098 52.3831 19.8449C52.3831 17.3801 51.4232 15.0626 49.6802 13.3197C46.0821 9.72144 40.2276 9.72169 36.6297 13.3197C34.8866 15.0626 33.9268 17.3801 33.9268 19.8449C33.9268 22.3098 34.8868 24.6273 36.6297 26.3702C38.4289 28.1694 40.7914 29.069 43.155 29.0687ZM39.2396 15.9297C40.319 14.8503 41.7369 14.3106 43.1547 14.3106C44.5727 14.3106 45.9906 14.8503 47.0699 15.9297C48.1157 16.9755 48.6916 18.3659 48.6916 19.8448C48.6916 21.3237 48.1157 22.7143 47.0699 23.76C44.9112 25.9189 41.3984 25.9188 39.2395 23.76C38.1938 22.7143 37.6178 21.3238 37.6178 19.8449C37.6178 18.3661 38.1939 16.9755 39.2396 15.9297Z" fill="#362D7D"></path><path id="Vector_3" d="M1.88274 51.9176C2.35512 51.9176 2.82749 51.7374 3.18777 51.3769L9.21371 45.351C9.93452 44.6302 9.93452 43.4616 9.21371 42.7408C8.49303 42.02 7.32434 42.02 6.60353 42.7408L0.577713 48.7667C-0.143092 49.4875 -0.143092 50.6561 0.577713 51.3769C0.937992 51.7373 1.41037 51.9176 1.88274 51.9176Z" fill="#362D7D"></path><path id="Vector_4" d="M14.7363 48.2642C14.0156 47.5434 12.8469 47.5434 12.1261 48.2642L0.540848 59.8497C-0.179957 60.5705 -0.179957 61.739 0.540848 62.4598C0.90125 62.8202 1.3735 63.0004 1.84588 63.0004C2.31825 63.0004 2.79063 62.8202 3.1509 62.4597L14.7362 50.8744C15.4571 50.1536 15.4571 48.985 14.7363 48.2642Z" fill="#362D7D"></path><path id="Vector_5" d="M17.6486 53.7867L11.6226 59.8126C10.9018 60.5334 10.9018 61.702 11.6226 62.4228C11.983 62.7832 12.4554 62.9635 12.9277 62.9635C13.3999 62.9635 13.8724 62.7833 14.2327 62.4228L20.2586 56.3969C20.9794 55.6761 20.9794 54.5075 20.2586 53.7867C19.538 53.0659 18.3693 53.0659 17.6486 53.7867Z" fill="#362D7D"></path></g></svg>