<svg xmlns="http://www.w3.org/2000/svg" width="30" height="29" viewBox="0 0 30 29" fill="none"><path d="M25.8308 17.4998C25.2918 18.7289 24.0355 19.9524 22.594 21.0194C19.4399 23.3602 15.9097 24.4888 11.917 24.0054C8.79164 23.6307 6.5609 21.9393 5.24884 19.1453C3.62304 15.6684 3.51101 12.0652 4.7108 8.50255C5.17453 7.13279 5.89855 5.80585 6.73206 4.61537C7.84081 3.02905 9.54451 2.37454 11.5184 2.42847C15.0798 2.5152 18.078 4.03669 20.8506 6.10902C22.8845 7.62607 24.6225 9.42191 25.739 11.7243C26.5898 13.4728 26.8447 15.2492 25.8308 17.4998Z" fill="#7175C1"></path><path d="M9.152 5.8V1.672H16.864V25H12.256V5.8H9.152Z" fill="white"></path></svg>