<svg xmlns="http://www.w3.org/2000/svg" width="30" height="29" viewBox="0 0 30 29" fill="none"><path d="M25.8308 17.4998C25.2918 18.7289 24.0355 19.9524 22.594 21.0194C19.4399 23.3602 15.9097 24.4888 11.917 24.0054C8.79164 23.6307 6.5609 21.9393 5.24884 19.1453C3.62304 15.6684 3.51101 12.0652 4.7108 8.50255C5.17453 7.13279 5.89855 5.80585 6.73206 4.61537C7.84081 3.02905 9.54451 2.37454 11.5184 2.42847C15.0798 2.5152 18.078 4.03669 20.8506 6.10902C22.8845 7.62607 24.6225 9.42191 25.739 11.7243C26.5898 13.4728 26.8447 15.2492 25.8308 17.4998Z" fill="#7175C1"></path><path d="M8.104 19.944C10.152 18.2373 11.784 16.8187 13 15.688C14.216 14.536 15.2293 13.3413 16.04 12.104C16.8507 10.8667 17.256 9.65067 17.256 8.456C17.256 7.368 17 6.51467 16.488 5.896C15.976 5.27733 15.1867 4.968 14.12 4.968C13.0533 4.968 12.232 5.33067 11.656 6.056C11.08 6.76 10.7813 7.73067 10.76 8.968H6.408C6.49333 6.408 7.25067 4.46667 8.68 3.144C10.1307 1.82133 11.9653 1.16 14.184 1.16C16.616 1.16 18.4827 1.81067 19.784 3.112C21.0853 4.392 21.736 6.088 21.736 8.2C21.736 9.864 21.288 11.4533 20.392 12.968C19.496 14.4827 18.472 15.8053 17.32 16.936C16.168 18.0453 14.664 19.3893 12.808 20.968H22.248V24.68H6.44V21.352L8.104 19.944Z" fill="white"></path></svg>