<svg xmlns="http://www.w3.org/2000/svg" width="30" height="29" viewBox="0 0 30 29" fill="none"><path d="M25.8308 17.4998C25.2918 18.7289 24.0355 19.9524 22.594 21.0194C19.4399 23.3602 15.9097 24.4888 11.917 24.0054C8.79164 23.6307 6.5609 21.9393 5.24884 19.1453C3.62304 15.6684 3.51101 12.0652 4.7108 8.50255C5.17453 7.13279 5.89855 5.80585 6.73206 4.61537C7.84081 3.02905 9.54451 2.37454 11.5184 2.42847C15.0798 2.5152 18.078 4.03669 20.8506 6.10902C22.8845 7.62607 24.6225 9.42191 25.739 11.7243C26.5898 13.4728 26.8447 15.2492 25.8308 17.4998Z" fill="#7175C1"></path><path d="M6.76 7.816C6.86667 5.68267 7.61333 4.04 9 2.888C10.408 1.71467 12.2533 1.128 14.536 1.128C16.0933 1.128 17.4267 1.40533 18.536 1.96C19.6453 2.49333 20.4773 3.22933 21.032 4.168C21.608 5.08533 21.896 6.13067 21.896 7.304C21.896 8.648 21.544 9.78933 20.84 10.728C20.1573 11.6453 19.336 12.264 18.376 12.584V12.712C19.6133 13.096 20.5733 13.7787 21.256 14.76C21.96 15.7413 22.312 17 22.312 18.536C22.312 19.816 22.0133 20.9573 21.416 21.96C20.84 22.9627 19.976 23.752 18.824 24.328C17.6933 24.8827 16.328 25.16 14.728 25.16C12.3173 25.16 10.3547 24.552 8.84 23.336C7.32533 22.12 6.52533 20.328 6.44 17.96H10.792C10.8347 19.0053 11.1867 19.848 11.848 20.488C12.5307 21.1067 13.4587 21.416 14.632 21.416C15.72 21.416 16.552 21.1173 17.128 20.52C17.7253 19.9013 18.024 19.112 18.024 18.152C18.024 16.872 17.6187 15.9547 16.808 15.4C15.9973 14.8453 14.7387 14.568 13.032 14.568H12.104V10.888H13.032C16.0613 10.888 17.576 9.87467 17.576 7.848C17.576 6.93067 17.2987 6.216 16.744 5.704C16.2107 5.192 15.432 4.936 14.408 4.936C13.4053 4.936 12.6267 5.21333 12.072 5.768C11.5387 6.30133 11.2293 6.984 11.144 7.816H6.76Z" fill="white"></path></svg>