<svg xmlns="http://www.w3.org/2000/svg" width="30" height="29" viewBox="0 0 30 29" fill="none"><path d="M25.8308 17.4998C25.2918 18.7289 24.0355 19.9524 22.594 21.0194C19.4399 23.3602 15.9097 24.4888 11.917 24.0054C8.79164 23.6307 6.5609 21.9393 5.24884 19.1453C3.62304 15.6684 3.51101 12.0652 4.7108 8.50255C5.17453 7.13279 5.89855 5.80585 6.73206 4.61537C7.84081 3.02905 9.54451 2.37454 11.5184 2.42847C15.0798 2.5152 18.078 4.03669 20.8506 6.10902C22.8845 7.62607 24.6225 9.42191 25.739 11.7243C26.5898 13.4728 26.8447 15.2492 25.8308 17.4998Z" fill="#7175C1"></path><path d="M21.376 5.544H11.008V11.016C11.456 10.4613 12.096 10.0133 12.928 9.672C13.76 9.30933 14.6453 9.128 15.584 9.128C17.2907 9.128 18.688 9.50133 19.776 10.248C20.864 10.9947 21.6533 11.9547 22.144 13.128C22.6347 14.28 22.88 15.5173 22.88 16.84C22.88 19.2933 22.176 21.2667 20.768 22.76C19.3813 24.2533 17.3973 25 14.816 25C12.384 25 10.4427 24.392 8.992 23.176C7.54133 21.96 6.72 20.3707 6.528 18.408H10.88C11.072 19.2613 11.4987 19.944 12.16 20.456C12.8427 20.968 13.7067 21.224 14.752 21.224C16.0107 21.224 16.96 20.8293 17.6 20.04C18.24 19.2507 18.56 18.2053 18.56 16.904C18.56 15.5813 18.2293 14.5787 17.568 13.896C16.928 13.192 15.9787 12.84 14.72 12.84C13.824 12.84 13.0773 13.064 12.48 13.512C11.8827 13.96 11.456 14.5573 11.2 15.304H6.912V1.608H21.376V5.544Z" fill="white"></path></svg>