<svg xmlns="http://www.w3.org/2000/svg" width="30" height="29" viewBox="0 0 30 29" fill="none"><path d="M25.8308 17.4998C25.2918 18.7289 24.0355 19.9524 22.594 21.0194C19.4399 23.3602 15.9097 24.4888 11.917 24.0054C8.79164 23.6307 6.5609 21.9393 5.24884 19.1453C3.62304 15.6684 3.51101 12.0652 4.7108 8.50255C5.17453 7.13279 5.89855 5.80585 6.73206 4.61537C7.84081 3.02905 9.54451 2.37454 11.5184 2.42847C15.0798 2.5152 18.078 4.03669 20.8506 6.10902C22.8845 7.62607 24.6225 9.42191 25.739 11.7243C26.5898 13.4728 26.8447 15.2492 25.8308 17.4998Z" fill="#7175C1"></path><path d="M17.792 7.496C17.5787 6.6 17.2053 5.928 16.672 5.48C16.16 5.032 15.4133 4.808 14.432 4.808C12.96 4.808 11.872 5.40533 11.168 6.6C10.4853 7.77333 10.1333 9.69333 10.112 12.36C10.624 11.5067 11.3707 10.8453 12.352 10.376C13.3333 9.88533 14.4 9.64 15.552 9.64C16.9387 9.64 18.1653 9.93867 19.232 10.536C20.2987 11.1333 21.1307 12.008 21.728 13.16C22.3253 14.2907 22.624 15.656 22.624 17.256C22.624 18.7707 22.3147 20.1253 21.696 21.32C21.0987 22.4933 20.2133 23.4107 19.04 24.072C17.8667 24.7333 16.4693 25.064 14.848 25.064C12.6293 25.064 10.88 24.5733 9.6 23.592C8.34133 22.6107 7.456 21.2453 6.944 19.496C6.45333 17.7253 6.208 15.5493 6.208 12.968C6.208 9.064 6.88 6.12 8.224 4.136C9.568 2.13067 11.6907 1.128 14.592 1.128C16.832 1.128 18.5707 1.736 19.808 2.952C21.0453 4.168 21.76 5.68267 21.952 7.496H17.792ZM14.528 13.32C13.3973 13.32 12.448 13.6507 11.68 14.312C10.912 14.9733 10.528 15.9333 10.528 17.192C10.528 18.4507 10.88 19.4427 11.584 20.168C12.3093 20.8933 13.3227 21.256 14.624 21.256C15.776 21.256 16.6827 20.904 17.344 20.2C18.0267 19.496 18.368 18.5467 18.368 17.352C18.368 16.1147 18.0373 15.1333 17.376 14.408C16.736 13.6827 15.7867 13.32 14.528 13.32Z" fill="white"></path></svg>