<!DOCTYPE svg PUBLIC "-//W3C//DTD SVG 1.1//EN" "http://www.w3.org/Graphics/SVG/1.1/DTD/svg11.dtd">
<!-- Uploaded to: SVG Repo, www.svgrepo.com, Transformed by: SVG Repo Mixer Tools -->
<svg fill="#ffffff" width="800px" height="800px" viewBox="-1 0 19 19" xmlns="http://www.w3.org/2000/svg" class="cf-icon-svg">
<g id="SVGRepo_bgCarrier" stroke-width="0"/>
<g id="SVGRepo_tracerCarrier" stroke-linecap="round" stroke-linejoin="round"/>
<g id="SVGRepo_iconCarrier">
<path fill-rule="evenodd" d="M16.417 9.583A7.917 7.917 0 1 1 8.5 1.666a7.917 7.917 0 0 1 7.917 7.917zm-2.81 0A5.106 5.106 0 1 1 8.5 4.477a5.106 5.106 0 0 1 5.106 5.106zm-.792 0A4.315 4.315 0 1 1 8.5 5.268a4.315 4.315 0 0 1 4.315 4.315zm-2.163-.992a.396.396 0 0 0-.386-.661.75.75 0 0 0-.305.233l-.414.414-.649.648v-2.51a.67.67 0 0 0-.056-.365.399.399 0 0 0-.735.196c-.009.232 0 .465 0 .697v2.933a.402.402 0 0 0 .258.376c.296.11.495-.169.677-.35l.998-.998.612-.613z"/>
</g>
</svg>