<svg xmlns="http://www.w3.org/2000/svg" width="230" height="79" viewBox="0 0 230 79" fill="none"><g filter="url(#filter0_d_3138_16825)"><rect x="7" y="7" width="212" height="61" rx="6" fill="white"></rect></g><path d="M78.8175 40.4065C78.8882 40.2491 79.1118 40.2491 79.1825 40.4065L81.1725 44.8405C81.2016 44.9053 81.2629 44.9498 81.3335 44.9575L86.1654 45.48C86.337 45.4985 86.4061 45.7111 86.2782 45.827L82.6762 49.0899C82.6235 49.1375 82.6001 49.2096 82.6147 49.2791L83.6109 54.036C83.6463 54.2049 83.4654 54.3363 83.3157 54.2505L79.0995 51.833C79.0379 51.7977 78.9621 51.7977 78.9005 51.833L74.6843 54.2505C74.5346 54.3363 74.3537 54.2049 74.3891 54.036L75.3853 49.2791C75.3999 49.2096 75.3765 49.1375 75.3238 49.0899L71.7218 45.827C71.5939 45.7111 71.663 45.4985 71.8346 45.48L76.6665 44.9575C76.7371 44.9498 76.7984 44.9053 76.8275 44.8405L78.8175 40.4065Z" fill="#E4AA13"></path><path d="M94.7265 40.4065C94.7971 40.2491 95.0207 40.2491 95.0914 40.4065L97.0815 44.8405C97.1105 44.9053 97.1718 44.9498 97.2424 44.9575L102.074 45.48C102.246 45.4985 102.315 45.7111 102.187 45.827L98.5851 49.0899C98.5325 49.1375 98.5091 49.2096 98.5236 49.2791L99.5199 54.036C99.5553 54.2049 99.3744 54.3363 99.2246 54.2505L95.0084 51.833C94.9468 51.7977 94.8711 51.7977 94.8095 51.833L90.5932 54.2505C90.4435 54.3363 90.2626 54.2049 90.298 54.036L91.2942 49.2791C91.3088 49.2096 91.2854 49.1375 91.2328 49.0899L87.6307 45.827C87.5028 45.7111 87.5719 45.4985 87.7435 45.48L92.5754 44.9575C92.6461 44.9498 92.7073 44.9053 92.7364 44.8405L94.7265 40.4065Z" fill="#E4AA13"></path><path d="M110.636 40.4065C110.706 40.2491 110.93 40.2491 111.001 40.4065L112.991 44.8405C113.02 44.9053 113.081 44.9498 113.152 44.9575L117.984 45.48C118.155 45.4985 118.224 45.7111 118.096 45.827L114.494 49.0899C114.442 49.1375 114.418 49.2096 114.433 49.2791L115.429 54.036C115.464 54.2049 115.284 54.3363 115.134 54.2505L110.918 51.833C110.856 51.7977 110.78 51.7977 110.719 51.833L106.502 54.2505C106.353 54.3363 106.172 54.2049 106.207 54.036L107.203 49.2791C107.218 49.2096 107.195 49.1375 107.142 49.0899L103.54 45.827C103.412 45.7111 103.481 45.4985 103.653 45.48L108.485 44.9575C108.555 44.9498 108.617 44.9053 108.646 44.8405L110.636 40.4065Z" fill="#E4AA13"></path><path d="M126.545 40.4065C126.615 40.2491 126.839 40.2491 126.91 40.4065L128.9 44.8405C128.929 44.9053 128.99 44.9498 129.061 44.9575L133.892 45.48C134.064 45.4985 134.133 45.7111 134.005 45.827L130.403 49.0899C130.351 49.1375 130.327 49.2096 130.342 49.2791L131.338 54.036C131.373 54.2049 131.192 54.3363 131.043 54.2505L126.827 51.833C126.765 51.7977 126.689 51.7977 126.628 51.833L122.411 54.2505C122.262 54.3363 122.081 54.2049 122.116 54.036L123.112 49.2791C123.127 49.2096 123.104 49.1375 123.051 49.0899L119.449 45.827C119.321 45.7111 119.39 45.4985 119.562 45.48L124.394 44.9575C124.464 44.9498 124.525 44.9053 124.555 44.8405L126.545 40.4065Z" fill="#E4AA13"></path><path d="M142.454 40.4065C142.524 40.2491 142.748 40.2491 142.819 40.4065L144.809 44.8405C144.838 44.9053 144.899 44.9498 144.97 44.9575L149.802 45.48C149.973 45.4985 150.042 45.7111 149.914 45.827L146.312 49.0899C146.26 49.1375 146.236 49.2096 146.251 49.2791L147.247 54.036C147.283 54.2049 147.102 54.3363 146.952 54.2505L142.736 51.833C142.674 51.7977 142.598 51.7977 142.537 51.833L138.321 54.2505C138.171 54.3363 137.99 54.2049 138.025 54.036L139.022 49.2791C139.036 49.2096 139.013 49.1375 138.96 49.0899L135.358 45.827C135.23 45.7111 135.299 45.4985 135.471 45.48L140.303 44.9575C140.373 44.9498 140.435 44.9053 140.464 44.8405L142.454 40.4065Z" fill="#E4AA13"></path><path d="M80.248 24.08C79.96 23.5253 79.56 23.1093 79.048 22.832C78.536 22.544 77.944 22.4 77.272 22.4C76.536 22.4 75.88 22.5653 75.304 22.896C74.728 23.2267 74.2747 23.696 73.944 24.304C73.624 24.912 73.464 25.616 73.464 26.416C73.464 27.216 73.624 27.9253 73.944 28.544C74.2747 29.152 74.728 29.6213 75.304 29.952C75.88 30.2827 76.536 30.448 77.272 30.448C78.264 30.448 79.0693 30.1707 79.688 29.616C80.3067 29.0613 80.6853 28.3093 80.824 27.36H76.648V25.904H82.776V27.328C82.6587 28.192 82.3493 28.9867 81.848 29.712C81.3573 30.4373 80.712 31.0187 79.912 31.456C79.1227 31.8827 78.2427 32.096 77.272 32.096C76.2267 32.096 75.272 31.856 74.408 31.376C73.544 30.8853 72.856 30.208 72.344 29.344C71.8427 28.48 71.592 27.504 71.592 26.416C71.592 25.328 71.8427 24.352 72.344 23.488C72.856 22.624 73.544 21.952 74.408 21.472C75.2827 20.9813 76.2373 20.736 77.272 20.736C78.456 20.736 79.5067 21.0293 80.424 21.616C81.352 22.192 82.024 23.0133 82.44 24.08H80.248ZM88.399 32.144C87.567 32.144 86.815 31.9573 86.143 31.584C85.471 31.2 84.943 30.6667 84.559 29.984C84.175 29.2907 83.983 28.4907 83.983 27.584C83.983 26.688 84.1803 25.8933 84.575 25.2C84.9697 24.5067 85.5083 23.9733 86.191 23.6C86.8737 23.2267 87.6363 23.04 88.479 23.04C89.3217 23.04 90.0843 23.2267 90.767 23.6C91.4497 23.9733 91.9883 24.5067 92.383 25.2C92.7777 25.8933 92.975 26.688 92.975 27.584C92.975 28.48 92.7723 29.2747 92.367 29.968C91.9617 30.6613 91.407 31.2 90.703 31.584C90.0097 31.9573 89.2417 32.144 88.399 32.144ZM88.399 30.56C88.8683 30.56 89.3057 30.448 89.711 30.224C90.127 30 90.463 29.664 90.719 29.216C90.975 28.768 91.103 28.224 91.103 27.584C91.103 26.944 90.9803 26.4053 90.735 25.968C90.4897 25.52 90.1643 25.184 89.759 24.96C89.3537 24.736 88.9163 24.624 88.447 24.624C87.9777 24.624 87.5403 24.736 87.135 24.96C86.7403 25.184 86.4257 25.52 86.191 25.968C85.9563 26.4053 85.839 26.944 85.839 27.584C85.839 28.5333 86.079 29.2693 86.559 29.792C87.0497 30.304 87.663 30.56 88.399 30.56ZM98.6021 32.144C97.7701 32.144 97.0181 31.9573 96.3461 31.584C95.6741 31.2 95.1461 30.6667 94.7621 29.984C94.3781 29.2907 94.1861 28.4907 94.1861 27.584C94.1861 26.688 94.3835 25.8933 94.7781 25.2C95.1728 24.5067 95.7115 23.9733 96.3941 23.6C97.0768 23.2267 97.8395 23.04 98.6821 23.04C99.5248 23.04 100.287 23.2267 100.97 23.6C101.653 23.9733 102.191 24.5067 102.586 25.2C102.981 25.8933 103.178 26.688 103.178 27.584C103.178 28.48 102.975 29.2747 102.57 29.968C102.165 30.6613 101.61 31.2 100.906 31.584C100.213 31.9573 99.4448 32.144 98.6021 32.144ZM98.6021 30.56C99.0715 30.56 99.5088 30.448 99.9141 30.224C100.33 30 100.666 29.664 100.922 29.216C101.178 28.768 101.306 28.224 101.306 27.584C101.306 26.944 101.183 26.4053 100.938 25.968C100.693 25.52 100.367 25.184 99.9621 24.96C99.5568 24.736 99.1195 24.624 98.6501 24.624C98.1808 24.624 97.7435 24.736 97.3381 24.96C96.9435 25.184 96.6288 25.52 96.3941 25.968C96.1595 26.4053 96.0421 26.944 96.0421 27.584C96.0421 28.5333 96.2821 29.2693 96.7621 29.792C97.2528 30.304 97.8661 30.56 98.6021 30.56ZM108.533 23.04C109.216 23.04 109.819 23.1787 110.341 23.456C110.875 23.7227 111.291 24.0587 111.589 24.464V23.184H113.429V32.144C113.429 32.9547 113.259 33.6747 112.917 34.304C112.576 34.944 112.08 35.4453 111.429 35.808C110.789 36.1707 110.021 36.352 109.125 36.352C107.931 36.352 106.939 36.0693 106.149 35.504C105.36 34.9493 104.912 34.192 104.805 33.232H106.613C106.752 33.6907 107.045 34.0587 107.493 34.336C107.952 34.624 108.496 34.768 109.125 34.768C109.861 34.768 110.453 34.544 110.901 34.096C111.36 33.648 111.589 32.9973 111.589 32.144V30.672C111.28 31.088 110.859 31.44 110.325 31.728C109.803 32.0053 109.205 32.144 108.533 32.144C107.765 32.144 107.061 31.952 106.421 31.568C105.792 31.1733 105.291 30.6293 104.917 29.936C104.555 29.232 104.373 28.4373 104.373 27.552C104.373 26.6667 104.555 25.8827 104.917 25.2C105.291 24.5173 105.792 23.9893 106.421 23.616C107.061 23.232 107.765 23.04 108.533 23.04ZM111.589 27.584C111.589 26.976 111.461 26.448 111.205 26C110.96 25.552 110.635 25.2107 110.229 24.976C109.824 24.7413 109.387 24.624 108.917 24.624C108.448 24.624 108.011 24.7413 107.605 24.976C107.2 25.2 106.869 25.536 106.613 25.984C106.368 26.4213 106.245 26.944 106.245 27.552C106.245 28.16 106.368 28.6933 106.613 29.152C106.869 29.6107 107.2 29.9627 107.605 30.208C108.021 30.4427 108.459 30.56 108.917 30.56C109.387 30.56 109.824 30.4427 110.229 30.208C110.635 29.9733 110.96 29.632 111.205 29.184C111.461 28.7253 111.589 28.192 111.589 27.584ZM117.649 20.16V32H115.825V20.16H117.649ZM128.124 27.376C128.124 27.7067 128.102 28.0053 128.06 28.272H121.324C121.377 28.976 121.638 29.5413 122.108 29.968C122.577 30.3947 123.153 30.608 123.836 30.608C124.817 30.608 125.51 30.1973 125.916 29.376H127.884C127.617 30.1867 127.132 30.8533 126.428 31.376C125.734 31.888 124.87 32.144 123.836 32.144C122.993 32.144 122.236 31.9573 121.564 31.584C120.902 31.2 120.38 30.6667 119.996 29.984C119.622 29.2907 119.436 28.4907 119.436 27.584C119.436 26.6773 119.617 25.8827 119.98 25.2C120.353 24.5067 120.87 23.9733 121.532 23.6C122.204 23.2267 122.972 23.04 123.836 23.04C124.668 23.04 125.409 23.2213 126.06 23.584C126.71 23.9467 127.217 24.4587 127.58 25.12C127.942 25.7707 128.124 26.5227 128.124 27.376ZM126.22 26.8C126.209 26.128 125.969 25.5893 125.5 25.184C125.03 24.7787 124.449 24.576 123.756 24.576C123.126 24.576 122.588 24.7787 122.14 25.184C121.692 25.5787 121.425 26.1173 121.34 26.8H126.22Z" fill="#545454"></path><path d="M169.128 43.592V40.952L176.976 29.72H180.888V40.664H183V43.592H180.888V47H177.528V43.592H169.128ZM177.744 33.32L172.824 40.664H177.744V33.32ZM187.011 47.168C186.403 47.168 185.899 46.984 185.499 46.616C185.115 46.232 184.923 45.76 184.923 45.2C184.923 44.64 185.115 44.176 185.499 43.808C185.899 43.424 186.403 43.232 187.011 43.232C187.603 43.232 188.091 43.424 188.475 43.808C188.859 44.176 189.051 44.64 189.051 45.2C189.051 45.76 188.859 46.232 188.475 46.616C188.091 46.984 187.603 47.168 187.011 47.168ZM194.302 37.736C192.702 36.904 191.902 35.616 191.902 33.872C191.902 33.008 192.118 32.224 192.55 31.52C192.998 30.8 193.662 30.232 194.542 29.816C195.438 29.384 196.526 29.168 197.806 29.168C199.086 29.168 200.166 29.384 201.046 29.816C201.942 30.232 202.606 30.8 203.038 31.52C203.486 32.224 203.71 33.008 203.71 33.872C203.71 34.752 203.494 35.528 203.062 36.2C202.63 36.856 202.054 37.368 201.334 37.736C202.214 38.12 202.902 38.68 203.398 39.416C203.894 40.152 204.142 41.024 204.142 42.032C204.142 43.12 203.862 44.072 203.302 44.888C202.758 45.688 202.006 46.304 201.046 46.736C200.086 47.168 199.006 47.384 197.806 47.384C196.606 47.384 195.526 47.168 194.566 46.736C193.622 46.304 192.87 45.688 192.31 44.888C191.766 44.072 191.494 43.12 191.494 42.032C191.494 41.024 191.742 40.152 192.238 39.416C192.734 38.664 193.422 38.104 194.302 37.736ZM200.446 34.352C200.446 33.568 200.206 32.96 199.726 32.528C199.262 32.096 198.622 31.88 197.806 31.88C197.006 31.88 196.366 32.096 195.886 32.528C195.422 32.96 195.19 33.576 195.19 34.376C195.19 35.096 195.43 35.672 195.91 36.104C196.406 36.536 197.038 36.752 197.806 36.752C198.574 36.752 199.206 36.536 199.702 36.104C200.198 35.656 200.446 35.072 200.446 34.352ZM197.806 39.2C196.894 39.2 196.15 39.432 195.574 39.896C195.014 40.36 194.734 41.024 194.734 41.888C194.734 42.688 195.006 43.344 195.55 43.856C196.11 44.352 196.862 44.6 197.806 44.6C198.75 44.6 199.494 44.344 200.038 43.832C200.582 43.32 200.854 42.672 200.854 41.888C200.854 41.04 200.574 40.384 200.014 39.92C199.454 39.44 198.718 39.2 197.806 39.2Z" fill="#E4AA13"></path><g clip-path="url(#clip0_3138_16825)"><path d="M59.4519 33.9356L42.7284 33.9348C41.9899 33.9348 41.3914 34.5333 41.3914 35.2718V40.6142C41.3914 41.3525 41.9899 41.9512 42.7283 41.9512H52.146C51.1148 44.6275 49.19 46.8688 46.7343 48.2929L50.75 55.2444C57.1917 51.5189 61 44.9822 61 37.6649C61 36.623 60.9232 35.8782 60.7696 35.0395C60.6529 34.4023 60.0997 33.9356 59.4519 33.9356Z" fill="#167EE6"></path><path d="M40.5 49.9783C35.8912 49.9783 31.8678 47.4602 29.7069 43.7339L22.7556 47.7405C26.2931 53.8715 32.9199 58 40.5 58C44.2186 58 47.7274 56.9988 50.75 55.254V55.2445L46.7344 48.2929C44.8975 49.3583 42.7719 49.9783 40.5 49.9783Z" fill="#12B347"></path><path d="M50.75 55.2541V55.2446L46.7343 48.293C44.8975 49.3582 42.7721 49.9784 40.5 49.9784V58.0001C44.2186 58.0001 47.7275 56.9989 50.75 55.2541Z" fill="#0F993E"></path><path d="M28.0217 37.5C28.0217 35.2283 28.6417 33.1029 29.7068 31.2661L22.7556 27.2595C21.0011 30.2726 20 33.7719 20 37.5C20 41.2281 21.0011 44.7274 22.7556 47.7405L29.7068 43.7338C28.6417 41.8971 28.0217 39.7717 28.0217 37.5Z" fill="#FFD500"></path><path d="M40.5 25.0217C43.5055 25.0217 46.2661 26.0897 48.4223 27.866C48.9543 28.3042 49.7274 28.2726 50.2147 27.7853L54 24C54.5529 23.4472 54.5135 22.5422 53.9229 22.0299C50.3102 18.8957 45.6096 17 40.5 17C32.9199 17 26.2931 21.1286 22.7556 27.2595L29.7069 31.2662C31.8678 27.5399 35.8912 25.0217 40.5 25.0217Z" fill="#FF4B26"></path><path d="M48.4223 27.866C48.9542 28.3042 49.7275 28.2726 50.2147 27.7853L54 24C54.5527 23.4472 54.5134 22.5422 53.9229 22.0299C50.3101 18.8956 45.6095 17 40.5 17V25.0217C43.5053 25.0217 46.266 26.0897 48.4223 27.866Z" fill="#D93F21"></path></g><defs><filter id="filter0_d_3138_16825" x="0" y="0" width="230" height="79" filterUnits="userSpaceOnUse" color-interpolation-filters="sRGB"><feGaussianBlur stdDeviation="4.5"></feGaussianBlur></filter><clipPath id="clip0_3138_16825"><rect width="41" height="41" fill="white" transform="translate(20 17)"></rect></clipPath></defs></svg>